Alien *1979* (Theatrical Cut) [1080p.Dual-audio.DTS-HD.MA 5.1.AC3.BluRay.x264-LEON 345]
 ================================================================================

produkcja: Wielka Brytania
 gatunek: Horror, Sci-Fi
 data premiery: 2003-11-14 (Polska), 1979-05-25 (Świat)
 reżyseria Ridley Scott
 scenariusz Dan O'Bannon, Ronald Shusett
 zdjęcia Derek Vanlint
 muzyka Jerry Goldsmith

 Załoga kosmicznego transportera Nostromo wraca na ziemię, wioząc duże ilości cennej rudy mineralnej. Gdy pokładowy superkomputer odbiera wezwanie SOS, wszyscy pasażerowie sa w hibernacyjnym śnie. Wkrótce statek ląduje na nieznanej planecie, a przywrócona do życia załoga zaczyna poszukiwanie nadawców sygnału. Nie znajdują jej, lecz trafiają na pozaziemską istotę, która zagnieżdża się w jednym z astronautów, zabija go i zaczyna polować na kolejnych członków ekspedycji. Sierżant Ellen Ripley podejmuje walkę o ocalenie pozostałych przy życiu kolegów.

 General
 Unique ID : 191773666923499956919826869796934268289 (0x904643C7CA08FF25949CC3E21A403581)
 Complete name : F:FilmyFilmy345)Alien.1979.Theatrical.Cut.PL(Leon 345).mkv
 Format : Matroska
 Format version : Version 2
 File size : 11.8 GiB
 Duration : 1h 56mn
 Encoding type : 2 pass
 Overall bit rate mode : Variable
 Overall bit rate : 14.5 Mbps
 Encoded date : UTC 2013-04-02 12:23:40
 Writing application : mkvmerge v5.7.0 ('The Whirlwind') built on Jul 8 2012 20:08:51
 Writing library : libebml v1.2.3 + libmatroska v1.3.0

 Video
 ID : 1
 Format : AVC
 Format/Info : Advanced Video Codec
 Format profile : High@L4.1
 Format settings, CABAC : Yes
 Format settings, ReFrames : 2 frames
 Codec ID : V_MPEG4/ISO/AVC
 Duration : 1h 56mn
 Bit rate mode : Variable
 Nominal bit rate : 10.8 Mbps
 Maximum bit rate : 35.0 Mbps
 Width : 1 920 pixels
 Height : 1 080 pixels
 Display aspect ratio : 16:9 (2.39:1)
 Frame rate mode : Constant
 Frame rate : 23.976 fps
 Color space : YUV
 Chroma subsampling : 4:2:0
 Bit depth : 8 bits
 Scan type : Progressive
 Bits/(Pixel*Frame) : 0.218
 Title : Rip by Leon 345 encoding 2 pass
 Writing library : x264 core 129 r2230 1cffe9f
 Default : Yes
 Forced : No

 Audio #1
 ID : 2
 Format : AC-3
 Format/Info : Audio Coding 3
 Mode extension : CM (complete main)
 Format settings, Endianness : Big
 Codec ID : A_AC3
 Duration : 1h 56mn
 Bit rate mode : Constant
 Bit rate : 192 Kbps
 Channel(s) : 2 channels
 Channel positions : Front: L R
 Sampling rate : 48.0 KHz
 Bit depth : 16 bits
 Compression mode : Lossy
 Stream size : 160 MiB (1%)
 Title : AC3 2.0 Lektor PL z DVD
 Language : Polish
 Default : Yes
 Forced : Yes

 Audio #2
 ID : 3
 Format : AC-3
 Format/Info : Audio Coding 3
 Mode extension : CM (complete main)
 Format settings, Endianness : Big
 Codec ID : A_AC3
 Duration : 1h 56mn
 Bit rate mode : Constant
 Bit rate : 640 Kbps
 Channel(s) : 6 channels
 Channel positions : Front: L C R, Side: L R, LFE
 Sampling rate : 48.0 KHz
 Bit depth : 16 bits
 Compression mode : Lossy
 Stream size : 534 MiB (4%)
 Title : AC3 5.1 Orginal
 Language : English
 Default : No
 Forced : No

 Audio #3
 ID : 4
 Format : DTS
 Format/Info : Digital Theater Systems
 Format profile : MA / Core
 Mode : 16
 Format settings, Endianness : Big
 Codec ID : A_DTS
 Duration : 1h 56mn
 Bit rate mode : Variable
 Bit rate : Unknown / 1 509 Kbps
 Channel(s) : 6 channels
 Channel positions : Front: L C R, Side: L R, LFE
 Sampling rate : 48.0 KHz
 Bit depth : 24 bits
 Compression mode : Lossless / Lossy
 Title : DTS HD MA 5.1 Orginal
 Language : English
 Default : No
 Forced : No

 Text #1
 ID : 5
 Format : PGS
 Muxing mode : zlib
 Codec ID : S_HDMV/PGS
 Codec ID/Info : The same subtitle format used on BDs/HD-DVDs
 Language : English
 Default : No
 Forced : No

 Text #2
 ID : 6
 Format : UTF-8
 Codec ID : S_TEXT/UTF8
 Codec ID/Info : UTF-8 Plain Text
 Language : Polish
 Default : No
 Forced : No

 Text #3
 ID : 7
 Format : UTF-8
 Codec ID : S_TEXT/UTF8
 Codec ID/Info : UTF-8 Plain Text
 Default : Yes
 Forced : Yes

 Source [thx]:
 A/V- Alien Anthology [2-in-1: Theatrical ; Director's Cut/Special Edition] {6-Disc Edition} (1979/1986/1992/1997) Blu-ray 1080p AVC DTS 5.1"
 Lektor PL DD 2.0 z wydania DVD